<svg width="734" height="257" viewBox="0 0 734 257" fill="none" xmlns="http://www.w3.org/2000/svg">
<g clip-path="url(#clip0_1_923)">
<path d="M327.073 70.5057C310.811 70.5057 301.467 63.3475 301.103 50.8508H312.996C313.845 58.0091 317.971 60.7996 326.588 60.7996C332.777 60.7996 338.238 58.6158 338.238 53.1561C338.238 47.3324 332.534 46.1191 323.311 44.0566C312.51 41.63 302.68 38.8395 302.68 26.4642C302.68 14.6954 312.389 8.62903 325.738 8.62903C339.33 8.62903 348.068 15.1806 348.917 27.192H337.267C336.539 21.247 331.927 18.2138 325.617 18.2138C319.063 18.2138 314.816 21.0044 314.816 25.2509C314.816 30.104 319.063 31.4384 327.923 33.3797C340.301 36.0489 350.374 38.9607 350.374 51.7001C350.495 63.7114 340.544 70.5057 327.073 70.5057Z" fill="#EBE9E1"/>
<path d="M385.204 69.1711L373.068 49.7588L368.092 54.8547V69.2925H356.685V9.84229H368.092V42.7218L383.383 26.5854H397.097L381.199 42.8433L399.038 69.2925H385.204V69.1711Z" fill="#EBE9E1"/>
<path d="M421.732 70.3844C407.412 70.3844 399.402 60.4356 399.402 47.8176C399.402 35.1996 408.019 25.3721 420.64 25.3721C434.475 25.3721 441.878 35.8062 441.878 51.0934H410.567C411.417 57.6451 415.057 61.7702 421.611 61.7702C426.101 61.7702 428.65 59.8289 429.984 56.5531H441.271C439.693 63.9541 432.776 70.3844 421.732 70.3844ZM420.761 34.1077C414.693 34.1077 411.781 37.6262 410.81 43.2073H429.984C429.62 37.7475 425.98 34.1077 420.761 34.1077Z" fill="#EBE9E1"/>
<path d="M449.038 69.1711V9.72095H460.446V69.1711H449.038Z" fill="#EBE9E1"/>
<path d="M469.911 69.1711V9.72095H481.319V69.1711H469.911Z" fill="#EBE9E1"/>
<path d="M510.809 70.3844C496.489 70.3844 488.479 60.4356 488.479 47.8176C488.479 35.1996 497.095 25.3721 509.717 25.3721C523.551 25.3721 530.954 35.8062 530.954 51.0934H499.644C500.493 57.6451 504.134 61.7702 510.687 61.7702C515.178 61.7702 517.726 59.8289 519.061 56.5531H530.347C528.77 63.9541 521.974 70.3844 510.809 70.3844ZM509.959 34.1077C503.891 34.1077 500.979 37.6262 500.008 43.2073H519.182C518.697 37.7475 515.056 34.1077 509.959 34.1077Z" fill="#EBE9E1"/>
<path d="M534.595 34.3504V26.5853H540.541V22.7028C540.541 12.2688 548.672 8.62897 559.716 9.84224V18.5778C554.376 18.3352 551.949 18.9418 551.949 23.4309V26.5853H559.716V34.3504H551.949V69.1711H540.541V34.3504H534.595Z" fill="#EBE9E1"/>
<path d="M563.721 33.9863V26.4641H569.667V13.1182H580.832V26.4641H588.235V33.9863H580.832V56.5531C580.832 59.7076 582.652 60.7996 585.08 60.7996C586.536 60.7996 588.478 60.6782 588.478 60.6782V69.0498C588.478 69.0498 585.929 69.1711 581.318 69.1711C575.735 69.1711 569.667 66.9872 569.667 58.9797V33.9863H563.721Z" fill="#EBE9E1"/>
<path d="M615.662 70.3844C601.342 70.3844 593.332 60.4356 593.332 47.8176C593.332 35.1996 601.948 25.3721 614.57 25.3721C628.404 25.3721 635.807 35.8062 635.807 51.0934H604.497C605.346 57.6451 608.987 61.7702 615.54 61.7702C620.031 61.7702 622.579 59.8289 623.914 56.5531H635.2C633.623 63.9541 626.827 70.3844 615.662 70.3844ZM614.812 34.1077C608.744 34.1077 605.832 37.6262 604.861 43.2073H624.035C623.55 37.7475 620.031 34.1077 614.812 34.1077Z" fill="#EBE9E1"/>
<path d="M670.03 69.1711C669.302 68.3218 668.938 66.3806 668.695 64.4394H668.574C666.389 67.7152 663.234 70.1419 655.831 70.1419C646.972 70.1419 640.783 65.5313 640.783 57.0384C640.783 47.6962 648.55 44.6631 658.137 43.3285C665.297 42.3578 668.574 41.7512 668.574 38.4754C668.574 35.4422 666.146 33.3796 661.292 33.3796C655.952 33.3796 653.283 35.3209 652.918 39.3247H642.724C643.089 31.8024 648.671 25.2509 661.292 25.2509C674.277 25.2509 679.496 30.9532 679.496 41.0234V62.7409C679.496 66.0167 679.981 67.8365 680.952 68.6858V69.0498H670.03V69.1711ZM658.622 62.2556C665.176 62.2556 668.816 58.2517 668.816 54.1266V47.6964C666.753 48.9096 663.719 49.5161 660.807 50.2441C654.86 51.5787 651.948 52.9133 651.948 56.9171C651.826 60.7996 654.617 62.2556 658.622 62.2556ZM661.414 22.4602C656.923 22.4602 653.283 19.0632 653.283 14.6954C653.283 10.3276 657.045 6.93042 661.414 6.93042C665.782 6.93042 669.544 10.4489 669.544 14.6954C669.666 19.0632 665.904 22.4602 661.414 22.4602ZM661.414 18.5779C663.598 18.5779 665.176 16.8793 665.176 14.6954C665.176 12.5115 663.598 10.8129 661.414 10.8129C659.229 10.8129 657.651 12.5115 657.651 14.6954C657.651 16.8793 659.229 18.5779 661.414 18.5779Z" fill="#EBE9E1"/>
<path d="M325.86 152.765C310.326 152.765 302.195 145.486 302.195 132.625V92.3446H314.452V132.625C314.452 138.813 317.608 143.059 325.739 143.059C333.506 143.059 337.146 138.57 337.146 132.383V92.2234H349.403V132.504C349.161 145.365 341.272 152.765 325.86 152.765Z" fill="#EBE9E1"/>
<path d="M367.243 114.911H367.485C370.398 110.301 374.403 107.874 380.228 107.874C389.087 107.874 395.155 114.547 395.155 123.89V151.795H383.747V125.467C383.747 120.856 381.077 117.702 376.223 117.702C371.126 117.702 367.485 121.706 367.485 127.529V151.673H356.078V108.966H367.243V114.911Z" fill="#EBE9E1"/>
<path d="M403.043 151.674V108.967H414.451V151.674H403.043ZM403.043 102.415V92.2234H414.451V102.415H403.043Z" fill="#EBE9E1"/>
<path d="M434.111 151.673L419.184 109.088H430.834L437.751 131.169C438.965 135.294 439.693 137.963 439.693 137.963H439.814C439.814 137.963 440.421 135.173 441.635 131.169L448.673 109.088H460.081L445.033 151.795H434.111V151.673Z" fill="#EBE9E1"/>
<path d="M483.867 153.008C469.547 153.008 461.538 143.059 461.538 130.441C461.538 117.823 470.154 107.996 482.775 107.996C496.61 107.996 504.013 118.43 504.013 133.717H472.703C473.552 140.269 477.193 144.394 483.746 144.394C488.236 144.394 490.785 142.453 492.12 139.177H503.406C501.828 146.578 495.032 153.008 483.867 153.008ZM483.018 116.61C476.95 116.61 474.037 120.128 473.067 125.709H492.241C491.756 120.371 488.236 116.61 483.018 116.61Z" fill="#EBE9E1"/>
<path d="M521.246 109.088V115.882H521.488C524.037 111.029 527.071 108.603 532.047 108.603C533.26 108.603 534.11 108.724 534.716 108.967V118.915H534.474C526.949 118.187 521.61 122.07 521.61 131.048V151.795H510.202V109.088H521.246Z" fill="#EBE9E1"/>
<path d="M558.017 153.008C545.517 153.008 538.478 147.063 537.872 137.964H548.43C549.158 142.817 552.677 145 557.896 145C562.993 145 565.784 143.059 565.784 140.147C565.784 136.022 560.323 135.658 554.376 134.445C546.609 132.989 539.085 130.927 539.085 121.584C539.085 112.364 546.852 107.996 556.682 107.996C568.09 107.996 574.4 113.577 575.25 122.191H564.934C564.449 117.581 561.536 116.003 556.561 116.003C552.07 116.003 549.158 117.702 549.158 120.735C549.158 124.375 554.862 124.739 561.051 125.952C568.332 127.408 576.221 129.471 576.221 139.419C576.221 147.791 568.818 153.008 558.017 153.008Z" fill="#EBE9E1"/>
<path d="M582.288 151.674V108.967H593.696V151.674H582.288ZM582.288 102.415V92.2234H593.696V102.415H582.288Z" fill="#EBE9E1"/>
<path d="M599.4 116.489V108.966H605.346V95.6205H616.511V108.966H623.914V116.489H616.511V139.055C616.511 142.21 618.332 143.302 620.759 143.302C622.215 143.302 624.157 143.181 624.157 143.181V151.552C624.157 151.552 621.608 151.673 616.997 151.673C611.414 151.673 605.346 149.49 605.346 141.482V116.489H599.4Z" fill="#EBE9E1"/>
<path d="M630.71 151.674V108.967H642.118V151.674H630.71ZM630.71 102.415V92.2234H642.118V102.415H630.71Z" fill="#EBE9E1"/>
<path d="M670.637 153.008C656.317 153.008 648.307 143.059 648.307 130.441C648.307 117.823 656.924 107.996 669.545 107.996C683.379 107.996 690.782 118.43 690.782 133.717H659.472C660.322 140.269 663.962 144.394 670.516 144.394C675.006 144.394 677.554 142.453 678.889 139.177H690.176C688.477 146.578 681.681 153.008 670.637 153.008ZM669.666 116.61C663.598 116.61 660.686 120.128 659.715 125.709H678.889C678.525 120.371 674.884 116.61 669.666 116.61Z" fill="#EBE9E1"/>
<path d="M714.447 153.008C701.947 153.008 694.908 147.063 694.301 137.964H704.859C705.588 142.817 709.107 145 714.325 145C719.422 145 722.214 143.059 722.214 140.147C722.214 136.022 716.752 135.658 710.806 134.445C703.039 132.989 695.515 130.927 695.515 121.584C695.515 112.364 703.282 107.996 713.112 107.996C724.519 107.996 730.83 113.577 731.679 122.191H721.364C720.879 117.581 717.966 116.003 712.99 116.003C708.5 116.003 705.588 117.702 705.588 120.735C705.588 124.375 711.291 124.739 717.481 125.952C724.762 127.408 732.65 129.471 732.65 139.419C732.65 147.791 725.247 153.008 714.447 153.008Z" fill="#EBE9E1"/>
<path d="M298.918 234.297L319.913 174.847H332.535L353.772 234.297H341.03L337.025 221.679H315.302L311.297 234.297H298.918ZM323.554 195.23L318.214 212.337H334.112L328.772 195.23C327.802 192.075 326.345 186.13 326.345 186.13H326.224C325.981 186.13 324.525 192.075 323.554 195.23Z" fill="#EBE9E1"/>
<path d="M356.32 234.297V174.847H367.728V234.297H356.32Z" fill="#EBE9E1"/>
<path d="M377.194 234.297V174.847H388.601V234.297H377.194Z" fill="#EBE9E1"/>
<path d="M397.825 234.297V191.59H409.232V234.297H397.825ZM397.825 184.917V174.726H409.232V184.917H397.825Z" fill="#EBE9E1"/>
<path d="M445.519 234.297C444.791 233.448 444.426 231.507 444.184 229.565H444.062C441.878 232.841 438.723 235.268 431.32 235.268C422.461 235.268 416.271 230.657 416.271 222.165C416.271 212.822 424.038 209.789 433.626 208.455C440.786 207.484 444.062 206.877 444.062 203.601C444.062 200.568 441.635 198.506 436.781 198.506C431.441 198.506 428.771 200.447 428.407 204.451H418.213C418.577 196.928 424.16 190.377 436.781 190.377C449.766 190.377 454.985 196.079 454.985 206.149V227.867C454.985 231.143 455.47 232.963 456.441 233.812V234.176H445.519V234.297ZM434.111 227.382C440.664 227.382 444.305 223.378 444.305 219.253V212.822C442.242 214.036 439.208 214.642 436.295 215.37C430.349 216.705 427.436 218.039 427.436 222.043C427.315 225.926 429.985 227.382 434.111 227.382Z" fill="#EBE9E1"/>
<path d="M475.13 191.59V197.414H475.372C478.285 192.803 482.29 190.377 488.115 190.377C496.974 190.377 503.042 197.05 503.042 206.392V234.297H491.634V208.091C491.634 203.48 488.965 200.326 484.11 200.326C479.013 200.326 475.372 204.329 475.372 210.153V234.297H463.965V191.59H475.13Z" fill="#EBE9E1"/>
<path d="M531.804 235.51C518.212 235.51 509.717 225.683 509.717 212.944C509.717 200.204 518.09 190.377 531.197 190.377C542.362 190.377 549.279 196.807 550.857 206.028H539.692C538.964 202.267 535.93 199.476 531.804 199.476C524.886 199.476 521.367 204.693 521.367 212.944C521.367 220.951 524.644 226.411 531.683 226.411C536.294 226.411 539.571 223.984 540.299 219.131H551.342C550.493 228.231 543.333 235.51 531.804 235.51Z" fill="#EBE9E1"/>
<path d="M578.284 235.51C563.963 235.51 555.954 225.562 555.954 212.944C555.954 200.326 564.57 190.498 577.191 190.498C591.026 190.498 598.429 200.932 598.429 216.219H567.119C567.968 222.771 571.609 226.896 578.162 226.896C582.653 226.896 585.201 224.955 586.536 221.679H597.822C596.123 229.08 589.327 235.51 578.284 235.51ZM577.313 199.234C571.245 199.234 568.332 202.752 567.361 208.333H586.536C586.172 202.873 582.531 199.234 577.313 199.234Z" fill="#EBE9E1"/>
<path d="M131.931 255.651C64.3343 255.651 9.35938 200.69 9.35938 133.11C9.35938 65.5313 64.3343 10.5702 131.931 10.5702C199.527 10.5702 254.502 65.5313 254.502 133.11C254.502 200.69 199.527 255.651 131.931 255.651ZM131.931 15.4232C67.0042 15.4232 14.2136 68.2005 14.2136 133.11C14.2136 198.02 67.0042 250.798 131.931 250.798C196.857 250.798 249.647 198.02 249.647 133.11C249.647 68.2005 196.735 15.4232 131.931 15.4232Z" fill="#EBE9E1"/>
<path d="M105.232 209.546C47.7082 209.546 0.864258 162.714 0.864258 105.205C0.864258 47.6962 47.7082 0.864014 105.232 0.864014C162.755 0.864014 209.599 47.6962 209.599 105.205C209.599 162.714 162.755 209.546 105.232 209.546ZM105.232 8.14364C51.7132 8.14364 8.14572 51.7001 8.14572 105.205C8.14572 158.71 51.7132 202.267 105.232 202.267C158.75 202.267 202.318 158.71 202.318 105.205C202.318 51.7001 158.75 8.14364 105.232 8.14364Z" fill="#EBE9E1"/>
<path d="M160.449 161.016C117.246 161.016 82.1738 125.952 82.1738 82.7598C82.1738 39.5675 117.246 4.50391 160.449 4.50391C203.653 4.50391 238.725 39.5675 238.725 82.7598C238.725 125.952 203.531 161.016 160.449 161.016ZM160.449 14.21C122.586 14.21 91.8824 44.9057 91.8824 82.7598C91.8824 120.614 122.586 151.31 160.449 151.31C198.313 151.31 229.017 120.614 229.017 82.7598C229.017 44.9057 198.192 14.21 160.449 14.21Z" fill="#EBE9E1"/>
</g>
<defs>
<clipPath id="clip0_1_923">
<rect width="733" height="256" fill="white" transform="translate(0.5 0.5)"/>
</clipPath>
</defs>
</svg>
